<?xml version="1.0" encoding="UTF-8" standalone="no"?>
<!DOCTYPE svg PUBLIC "-//W3C//DTD SVG 1.1//EN" "http://www.w3.org/Graphics/SVG/1.1/DTD/svg11.dtd">
<svg width="100%" height="100%" viewBox="0 0 573 613" version="1.1" xmlns="http://www.w3.org/2000/svg" xmlns:xlink="http://www.w3.org/1999/xlink" xml:space="preserve" xmlns:serif="http://www.serif.com/" style="fill-rule:evenodd;clip-rule:evenodd;stroke-linecap:square;stroke-miterlimit:1.5;">
    <g transform="matrix(1,0,0,1,-366.356,-149.723)">
        <text x="437.165px" y="266.908px" style="font-family:'Consolas', monospace;font-size:96px;">t</text>
        <text x="489.947px" y="266.908px" style="font-family:'Consolas', monospace;font-size:96px;fill:rgb(188,188,188);">ight</text>
        <text x="437.165px" y="379.314px" style="font-family:'Consolas', monospace;font-size:96px;fill:rgb(188,188,188);">b</text>
        <text x="489.947px" y="379.314px" style="font-family:'Consolas', monospace;font-size:96px;">i</text>
        <text x="542.728px" y="379.314px" style="font-family:'Consolas', monospace;font-size:96px;fill:rgb(188,188,188);">nding</text>
        <text x="437.165px" y="491.721px" style="font-family:'Consolas', monospace;font-size:96px;fill:rgb(188,188,188);">de</text>
        <text x="542.728px" y="491.721px" style="font-family:'Consolas', monospace;font-size:96px;">n</text>
        <text x="595.509px" y="491.721px" style="font-family:'Consolas', monospace;font-size:96px;fill:rgb(188,188,188);">sity</text>
        <text x="437.165px" y="604.127px" style="font-family:'Consolas', monospace;font-size:96px;fill:rgb(188,188,188);">fun</text>
        <text x="595.509px" y="604.127px" style="font-family:'Consolas', monospace;font-size:96px;">t</text>
        <text x="648.29px" y="604.127px" style="font-family:'Consolas', monospace;font-size:96px;fill:rgb(188,188,188);">ional</text>
        <text x="437.165px" y="716.533px" style="font-family:'Consolas', monospace;font-size:96px;fill:rgb(188,188,188);">theo</text>
        <text x="648.29px" y="716.533px" style="font-family:'Consolas', monospace;font-size:96px;">r</text>
        <text x="701.072px" y="716.533px" style="font-family:'Consolas', monospace;font-size:96px;fill:rgb(188,188,188);">y</text>
    </g>
    <g transform="matrix(1,0,0,1,-453.69,-93.6903)">
        <path d="M580,100L460,100L460,700L580,700" style="fill:none;stroke:black;stroke-width:7px;"/>
    </g>
    <g transform="matrix(-1,1.22465e-16,-1.22465e-16,-1,1026.31,706.31)">
        <path d="M580,100L460,100L460,700L580,700" style="fill:none;stroke:black;stroke-width:7px;"/>
    </g>
</svg>
